P2  58  17  255
112 48  48  48  48  48  48  48  48  48  48  48  48  48  48  48  48  48  48  48  48  48  48  48  48  48  48  48  48  48  48  48  48  48  48  48  48  48  48  48  48  48  48  48  48  48  48  48  48  48  48  48  48  48  48  48  48  176
80  3   3   3   3   3   3   3   3   3   3   3   3   3   3   3   3   3   3   3   3   3   3   3   3   3   3   3   3   3   3   3   3   3   3   3   3   3   3   3   3   3   3   3   3   3   3   3   3   3   3   3   3   3   3   3   3   160
80  3   128 192 64  3   128 192 192 192 192 192 192 192 64  3   128 192 192 192 192 192 192 192 192 192 192 192 192 192 64  3   128 192 192 192 192 192 192 64  1   128 192 64  3   128 192 192 192 64  3   128 192 192 192 64  3   160
80  5   32  48  16  3   160 0   0   0   0   0   0   0   80  3   32  48  48  48  48  48  48  48  48  48  48  48  48  48  16  3   32  48  48  48  48  48  48  16  1   160 0   80  3   32  48  48  48  16  3   32  48  48  48  16  5   160
80  3   3   3   3   3   160 0   112 48  48  48  48  48  16  3   3   3   3   3   3   3   3   3   3   3   3   3   3   3   3   3   1   1   1   1   9   1   1   1   1   160 0   80  3   3   3   3   3   3   3   3   3   3   3   3   3   160
208 192 192 192 64  3   160 0   80  3   3   3   3   3   3   3   128 192 192 192 192 192 64  3   128 192 192 192 192 192 64  1   128 192 65  0   0   129 192 64  1   160 0   80  3   128 192 192 192 192 192 64  3   128 192 192 192 224
0   0   0   0   80  3   160 0   80  3   128 192 192 192 64  3   160 0   0   0   0   0   80  3   160 0   0   0   0   0   80  1   160 112 17  0   0   33  176 80  1   160 0   80  3   160 0   128 192 64  0   80  3   160 0   0   0   0
48  48  48  48  16  3   160 0   80  3   32  48  176 0   80  3   160 0   112 48  176 0   80  3   160 0   112 48  176 0   80  1   160 80  1   9   9   9   160 80  1   160 0   80  3   160 0   32  48  16  0   80  3   32  48  48  48  48
1   1   1   1   1   3   160 0   80  3   3   5   161 1   81  3   160 0   80  1   160 0   80  3   160 0   80  1   160 0   80  1   160 208 192 192 192 192 224 80  1   160 0   80  3   160 0   112 48  48  48  16  3   1   1   1   1   1
192 192 192 192 64  3   160 0   208 192 192 192 224 0   80  3   160 0   208 192 224 0   80  3   160 0   208 192 224 0   80  1   160 0   0   0   0   0   0   80  1   160 0   80  3   160 0   80  3   3   3   3   3   128 192 192 192 192
0   0   0   0   80  3   160 0   0   0   0   0   0   0   80  3   160 0   0   0   0   0   80  3   160 0   0   0   0   0   80  1   160 0   0   0   0   0   0   80  1   160 0   80  3   160 0   208 192 192 192 64  3   160 0   0   0   0
112 48  48  48  16  3   32  48  48  48  48  48  48  48  16  3   32  48  48  48  48  48  16  3   32  48  48  48  48  48  16  1   160 0   0   0   0   0   0   80  1   32  48  16  3   32  48  48  48  48  48  16  3   32  48  48  48  176
80  3   3   3   3   3   3   3   3   3   3   3   3   3   3   3   3   3   3   3   3   3   3   3   3   3   3   3   3   3   3   3   32  48  48  176 112 48  48  16  3   3   3   3   3   3   3   3   3   3   3   3   3   3   3   3   3   160
80  3   128 192 192 64  3   128 192 192 192 192 192 192 192 192 64  3   128 64  3   128 192 192 192 192 192 192 192 192 64  3   3   3   3   160 80  3   3   3   3   128 192 192 192 192 192 192 192 64  3   128 192 192 192 64  3   160
80  3   32  48  48  16  3   32  48  48  48  48  48  48  48  48  16  3   160 80  3   32  48  48  48  48  48  48  48  48  16  3   128 64  3   32  16  3   128 64  3   32  48  48  48  48  48  48  48  16  3   32  48  48  48  16  3   160
80  5   3   3   3   3   3   3   3   3   3   3   3   3   3   3   3   3   160 80  3   3   3   3   3   3   3   3   3   3   3   3   160 80  3   1   9   3   160 80  3   3   3   3   3   3   3   3   3   3   3   3   3   3   3   3   5   160
208 192 192 192 192 192 192 192 192 192 192 192 192 192 192 192 192 192 224 208 192 192 192 192 192 192 192 192 192 192 192 192 224 208 192 192 192 192 224 208 192 192 192 192 192 192 192 192 192 192 192 192 192 192 192 192 192 224















